<svg xmlns="http://www.w3.org/2000/svg" width="1200" height="1160" viewBox="0 0 1200 1160" role="img" aria-labelledby="title desc">
  <title id="title">봉차트 패턴 전체 비교: 한 개봉·두 개봉·세 개봉</title>
  <desc id="desc">원본의 패턴 분류를 벡터로 재구성했다. 한 개봉은 해머형·교수형·역전된 해머형·유성형·상승 및 하락 샅바형·십자형, 두 개봉은 장악형·잉태형·관통형·먹구름형·반격형, 세 개봉은 샛별형·석별형·까마귀형이다. 각 패턴 앞의 추세와 양봉·음봉의 위치를 함께 보여준다. 전환 가능성을 해석하는 도구이며 확정 신호는 아니다.</desc>
  <defs>
    <g id="fall" fill="none" stroke="#64748b" stroke-width="3" stroke-linecap="round" stroke-linejoin="round">
      <path d="M12 28L28 48L38 39L55 64L65 55L81 79"/>
    </g>
    <g id="rise" fill="none" stroke="#64748b" stroke-width="3" stroke-linecap="round" stroke-linejoin="round">
      <path d="M12 79L28 59L38 68L55 43L65 52L81 28"/>
    </g>
    <g id="hammer" stroke="#dc2626" stroke-width="3"><path d="M105 83V151"/><path d="M96 87H114V108H96Z" fill="#dc2626"/></g>
    <g id="hanging" stroke="#2563eb" stroke-width="3"><path d="M105 18V88"/><path d="M96 23H114V45H96Z" fill="#2563eb"/></g>
    <g id="inverted" stroke="#dc2626" stroke-width="3"><path d="M105 73V143"/><path d="M96 116H114V138H96Z" fill="#dc2626"/></g>
    <g id="shooting" stroke="#2563eb" stroke-width="3"><path d="M105 12V82"/><path d="M96 55H114V77H96Z" fill="#2563eb"/></g>
    <g id="bull-belt" stroke="#dc2626" stroke-width="3"><path d="M105 65V82"/><path d="M96 82H114V143H96Z" fill="#dc2626"/></g>
    <g id="bear-belt" stroke="#2563eb" stroke-width="3"><path d="M105 87V102"/><path d="M96 25H114V87H96Z" fill="#2563eb"/></g>
    <g id="bull-engulf">
      <g stroke="#2563eb" stroke-width="2"><path d="M100 78V137"/><path d="M92 90H108V123H92Z" fill="#2563eb"/></g>
      <g stroke="#dc2626" stroke-width="2"><path d="M131 65V147"/><path d="M122 78H140V135H122Z" fill="#dc2626"/></g>
    </g>
    <g id="bear-engulf">
      <g stroke="#dc2626" stroke-width="2"><path d="M100 23V82"/><path d="M92 35H108V68H92Z" fill="#dc2626"/></g>
      <g stroke="#2563eb" stroke-width="2"><path d="M131 12V94"/><path d="M122 23H140V80H122Z" fill="#2563eb"/></g>
    </g>
    <g id="bull-harami">
      <g stroke="#2563eb" stroke-width="2"><path d="M100 72V148"/><path d="M91 82H109V139H91Z" fill="#2563eb"/></g>
      <g stroke="#dc2626" stroke-width="2"><path d="M133 96V125"/><path d="M126 101H140V119H126Z" fill="#dc2626"/></g>
    </g>
    <g id="bear-harami">
      <g stroke="#dc2626" stroke-width="2"><path d="M100 15V91"/><path d="M91 25H109V82H91Z" fill="#dc2626"/></g>
      <g stroke="#2563eb" stroke-width="2"><path d="M133 39V68"/><path d="M126 44H140V62H126Z" fill="#2563eb"/></g>
    </g>
    <g id="piercing">
      <g stroke="#2563eb" stroke-width="2"><path d="M100 70V137"/><path d="M91 78H109V130H91Z" fill="#2563eb"/></g>
      <g stroke="#dc2626" stroke-width="2"><path d="M133 87V156"/><path d="M124 95H142V147H124Z" fill="#dc2626"/></g>
      <path d="M84 104H153" stroke="#94a3b8" stroke-dasharray="3 3"/>
    </g>
    <g id="dark-cloud">
      <g stroke="#dc2626" stroke-width="2"><path d="M100 25V92"/><path d="M91 33H109V85H91Z" fill="#dc2626"/></g>
      <g stroke="#2563eb" stroke-width="2"><path d="M133 9V78"/><path d="M124 18H142V70H124Z" fill="#2563eb"/></g>
      <path d="M84 59H153" stroke="#94a3b8" stroke-dasharray="3 3"/>
    </g>
    <g id="bull-counter">
      <g stroke="#2563eb" stroke-width="2"><path d="M100 60V120"/><path d="M91 70H109V110H91Z" fill="#2563eb"/></g>
      <g stroke="#dc2626" stroke-width="2"><path d="M133 100V157"/><path d="M124 110H142V148H124Z" fill="#dc2626"/></g>
      <path d="M83 110H153" stroke="#64748b" stroke-dasharray="3 3"/>
    </g>
    <g id="bear-counter">
      <g stroke="#dc2626" stroke-width="2"><path d="M100 57V118"/><path d="M91 67H109V108H91Z" fill="#dc2626"/></g>
      <g stroke="#2563eb" stroke-width="2"><path d="M133 12V77"/><path d="M124 22H142V67H124Z" fill="#2563eb"/></g>
      <path d="M83 67H153" stroke="#64748b" stroke-dasharray="3 3"/>
    </g>
    <g id="morning">
      <g stroke="#2563eb" stroke-width="2"><path d="M91 72V132"/><path d="M84 80H98V124H84Z" fill="#2563eb"/></g>
      <g stroke="#64748b" stroke-width="2"><path d="M119 130V153"/><path d="M113 138H125V145H113Z" fill="white"/></g>
      <g stroke="#dc2626" stroke-width="2"><path d="M147 83V136"/><path d="M140 92H154V129H140Z" fill="#dc2626"/></g>
    </g>
    <g id="evening">
      <g stroke="#dc2626" stroke-width="2"><path d="M91 33V93"/><path d="M84 41H98V85H84Z" fill="#dc2626"/></g>
      <g stroke="#64748b" stroke-width="2"><path d="M119 12V35"/><path d="M113 20H125V27H113Z" fill="white"/></g>
      <g stroke="#2563eb" stroke-width="2"><path d="M147 29V82"/><path d="M140 36H154V73H140Z" fill="#2563eb"/></g>
    </g>
    <g id="crows">
      <g stroke="#2563eb" stroke-width="2">
        <path d="M91 19V79 M121 52V112 M151 85V145"/>
        <path d="M84 27H98V70H84Z M114 60H128V103H114Z M144 93H158V136H144Z" fill="#2563eb"/>
      </g>
    </g>
  </defs>
  <rect width="1200" height="1160" rx="24" fill="#f4f7fc"/>
  <g font-family="'Apple SD Gothic Neo', 'Malgun Gothic', sans-serif" fill="#172b4d">
    <text x="32" y="43" font-size="15" fill="#2563eb">TECHNICAL ANALYSIS / CANDLESTICK PATTERN ATLAS</text>
    <text x="32" y="86" font-size="30" font-weight="700">봉차트 패턴, 앞선 추세와 함께 비교하세요</text>
    <text x="32" y="120" font-size="18">원본의 한 개봉·두 개봉·세 개봉 구성 · 빨강: 양봉 / 파랑: 음봉 / 회색 선: 앞선 추세</text>
    <g fill="#e2e8f0">
      <rect x="24" y="145" width="376" height="51" rx="10"/>
      <rect x="412" y="145" width="376" height="51" rx="10"/>
      <rect x="800" y="145" width="376" height="51" rx="10"/>
    </g>
    <g font-size="25" font-weight="700" text-anchor="middle">
      <text x="212" y="180">한 개봉</text><text x="600" y="180">두 개봉</text><text x="988" y="180">세 개봉</text>
    </g>
    <g font-size="21" font-weight="700" text-anchor="middle">
      <text x="115" y="229" fill="#be123c">상승전환</text><text x="309" y="229" fill="#1d4ed8">하락전환</text>
      <text x="503" y="229" fill="#be123c">상승전환</text><text x="697" y="229" fill="#1d4ed8">하락전환</text>
      <text x="891" y="229" fill="#be123c">상승전환</text><text x="1085" y="229" fill="#1d4ed8">하락전환</text>
    </g>
    <path d="M406 145V1050 M794 145V1050 M24 447H1176 M24 651H1176 M24 855H788" stroke="#cbd5e1" stroke-width="2"/>
    <g font-size="20" text-anchor="middle">
      <g transform="translate(28 247)"><use href="#fall"/><use href="#hammer"/><text x="87" y="186">해머형</text></g>
      <g transform="translate(222 247)"><use href="#rise"/><use href="#hanging"/><text x="87" y="186">교수형</text></g>
      <g transform="translate(416 247)"><use href="#fall"/><use href="#bull-engulf"/><text x="87" y="186">상승장악형</text></g>
      <g transform="translate(610 247)"><use href="#rise"/><use href="#bear-engulf"/><text x="87" y="186">하락장악형</text></g>
      <g transform="translate(804 247)"><use href="#fall"/><use href="#morning"/><text x="87" y="186">샛별형</text></g>
      <g transform="translate(998 247)"><use href="#rise"/><use href="#evening"/><text x="87" y="186">석별형</text></g>
      <g transform="translate(28 451)"><use href="#fall"/><use href="#inverted"/><text x="87" y="186">역전된 해머형</text></g>
      <g transform="translate(222 451)"><use href="#rise"/><use href="#shooting"/><text x="87" y="186">유성형</text></g>
      <g transform="translate(416 451)"><use href="#fall"/><use href="#bull-harami"/><text x="87" y="186">상승잉태형</text></g>
      <g transform="translate(610 451)"><use href="#rise"/><use href="#bear-harami"/><text x="87" y="186">하락잉태형</text></g>
      <g transform="translate(998 451)"><use href="#rise"/><use href="#crows"/><text x="87" y="186">까마귀형 (흑삼병)</text></g>
      <g transform="translate(28 655)"><use href="#fall"/><use href="#bull-belt"/><text x="87" y="186">상승샅바형</text></g>
      <g transform="translate(222 655)"><use href="#rise"/><use href="#bear-belt"/><text x="87" y="186">하락샅바형</text></g>
      <g transform="translate(416 655)"><use href="#fall"/><use href="#piercing"/><text x="87" y="186">관통형</text></g>
      <g transform="translate(610 655)"><use href="#rise"/><use href="#dark-cloud"/><text x="87" y="186">먹구름형</text></g>
      <g transform="translate(416 859)"><use href="#fall"/><use href="#bull-counter"/><text x="87" y="186">상승반격형</text></g>
      <g transform="translate(610 859)"><use href="#rise"/><use href="#bear-counter"/><text x="87" y="186">하락반격형</text></g>
    </g>
    <g transform="translate(24 882)" text-anchor="middle">
      <g stroke="#475569" stroke-width="3">
        <path d="M62 51V101 M44 76H80 M188 24V132 M170 76H206 M314 24V116 M296 116H332"/>
      </g>
      <g font-size="17">
        <text x="62" y="163">십자형</text><text x="188" y="163">장족십자형</text><text x="314" y="163">비석십자형</text>
      </g>
    </g>
    <rect x="813" y="680" width="350" height="352" rx="16" fill="#e2e8f0"/>
    <text x="835" y="719" font-size="23" font-weight="700">그림 읽는 순서</text>
    <g font-size="19">
      <text x="835" y="763">1. 먼저 상승·하락 추세 확인</text>
      <text x="835" y="808">2. 몸통의 길이·포함 관계 확인</text>
      <text x="835" y="853">3. 꼬리·가격 갭·종가 위치 확인</text>
      <text x="835" y="898">4. 이후 봉·거래량으로 재확인</text>
      <text x="835" y="947" fill="#475569">십자형은 시가와 종가가 유사.</text>
      <text x="835" y="978" fill="#475569">그 자체로 전환 방향을</text>
      <text x="835" y="1006" fill="#475569">확정하지는 않습니다.</text>
    </g>
    <text x="32" y="1096" font-size="21" font-weight="700" fill="#9a3412">같은 봉 모양도 추세 위치에 따라 이름과 해석이 달라집니다.</text>
    <text x="32" y="1131" font-size="18" fill="#475569">전형적인 형태를 단순화한 학습용 그림입니다. 패턴만으로 향후 가격이나 수익을 보장하지 않습니다.</text>
  </g>
</svg>
